<svg width="160" height="69" viewBox="0 0 160 69" fill="none" xmlns="http://www.w3.org/2000/svg">
<path d="M34.9261 56.1981C33.6535 56.1981 32.5693 56.0724 31.6737 55.821C30.7938 55.5696 30.0711 55.1768 29.5055 54.6426C28.9555 54.1084 28.547 53.4328 28.2799 52.6157C28.0285 51.783 27.9028 50.7853 27.9028 49.6226V41.0202H26.253V39.4647H33.3706V41.0202H31.7209V49.6697C31.7209 50.471 31.7759 51.1624 31.8858 51.7437C32.0115 52.3251 32.2079 52.8121 32.475 53.2049C32.7579 53.5977 33.1271 53.8884 33.5828 54.077C34.0541 54.2655 34.6355 54.3598 35.3268 54.3598C36.7095 54.3598 37.6758 53.9905 38.2257 53.2521C38.7913 52.4979 39.0741 51.3273 39.0741 49.7404V41.0202H37.4244V39.4647H42.5622V41.0202H40.9125V49.6933C40.9125 51.8144 40.4411 53.4328 39.4984 54.5483C38.5556 55.6482 37.0316 56.1981 34.9261 56.1981ZM44.3665 54.3598H46.0163V41.0202H44.3665V39.4647H51.4841V41.0202H49.8343V47.6664H49.9993L52.6625 44.7439L56.1035 41.0202H54.4537V39.4647H60.2043V41.0202H58.4839L54.2652 45.4039L59.733 54.3598H61.1471V55.9153H53.7702V54.3598H55.3022L51.6491 47.9964L49.8343 49.8818V54.3598H51.4841V55.9153H44.3665V54.3598ZM75.5007 56.1981C74.3223 56.1981 73.2774 55.986 72.3661 55.5618C71.4705 55.1218 70.7085 54.5248 70.08 53.7706C69.4515 53.0007 68.9723 52.0972 68.6423 51.0602C68.3281 50.0232 68.171 48.9077 68.171 47.7135C68.171 46.3309 68.3595 45.1053 68.7366 44.0369C69.1294 42.9685 69.6479 42.0807 70.2921 41.3737C70.9363 40.6509 71.6826 40.1089 72.5311 39.7475C73.3952 39.3704 74.2908 39.1819 75.2178 39.1819C75.7206 39.1819 76.1606 39.2368 76.5377 39.3468C76.9305 39.4411 77.2683 39.5668 77.5511 39.7239C77.8339 39.881 78.0696 40.0617 78.2581 40.266C78.4467 40.4545 78.5881 40.6431 78.6824 40.8316H78.8238V39.4647H81.5577V44.6968H78.8238V43.6362C78.8238 42.8349 78.5567 42.1907 78.0225 41.7036C77.504 41.2166 76.7419 40.973 75.7363 40.973C74.6836 40.973 73.8587 41.303 73.2617 41.9629C72.6646 42.6228 72.3661 43.6598 72.3661 45.0739V49.8583C72.3661 50.5967 72.4604 51.2252 72.6489 51.7437C72.8375 52.2622 73.0967 52.6943 73.4267 53.04C73.7723 53.3856 74.173 53.637 74.6286 53.7941C75.1 53.9513 75.6107 54.0298 76.1606 54.0298C77.1662 54.0298 78.0146 53.7706 78.7059 53.2521C79.413 52.7179 79.9472 52.003 80.3086 51.1074L81.652 51.8851C81.4477 52.4822 81.157 53.0478 80.7799 53.582C80.4029 54.1005 79.9472 54.5562 79.413 54.949C78.8945 55.3418 78.3053 55.6482 77.6454 55.8681C76.9855 56.0881 76.2706 56.1981 75.5007 56.1981ZM83.5855 54.3598H85.2353V41.0202H83.5855V39.4647H90.8209V41.0202H89.0533V54.2184H93.5313V51.0602H96.2652V55.9153H83.5855V54.3598ZM97.5642 54.3598H98.7426L103.857 39.4647H107.109L112.224 54.3598H113.402V55.9153H106.497V54.3598H108.382L107.251 50.8953H101.877L100.746 54.3598H102.631V55.9153H97.5642V54.3598ZM102.349 49.269H106.827L104.611 42.34H104.517L102.349 49.269ZM114.68 54.3598H116.33V41.0202H114.68V39.4647H121.797V41.0202H120.148V54.3598H121.797V55.9153H114.68V54.3598ZM123.725 54.3598H125.375V41.0202H123.725V39.4647H129.664L133.341 47.3836H133.435L136.876 39.4647H142.91V41.0202H141.26V54.3598H142.91V55.9153H135.792V54.3598H137.442V42.3636H137.3L135.933 45.8045L132.327 53.3935L128.745 45.8045L127.355 42.3636H127.213V54.3598H128.863V55.9153H123.725V54.3598ZM151.406 56.1981C150.934 56.1981 150.502 56.1431 150.109 56.0331C149.732 55.9389 149.394 55.8132 149.096 55.656C148.813 55.4832 148.57 55.3025 148.365 55.114C148.177 54.9097 148.035 54.7212 147.941 54.5483H147.847V55.9153H145.113V51.1074H147.847V52.1208C147.847 52.9693 148.145 53.5742 148.742 53.9356C149.339 54.2812 150.156 54.4541 151.193 54.4541C152.278 54.4541 153.079 54.2341 153.597 53.7941C154.132 53.3542 154.399 52.7807 154.399 52.0737C154.399 51.728 154.352 51.4295 154.257 51.1781C154.179 50.9267 154.037 50.7146 153.833 50.5417C153.629 50.3532 153.354 50.1961 153.008 50.0704C152.663 49.929 152.23 49.8033 151.712 49.6933L150.651 49.4576C149.85 49.3005 149.112 49.0884 148.436 48.8212C147.776 48.5384 147.21 48.1771 146.739 47.7371C146.268 47.2972 145.898 46.7708 145.631 46.158C145.38 45.5453 145.254 44.8225 145.254 43.9898C145.254 43.2827 145.38 42.6385 145.631 42.0572C145.883 41.4601 146.244 40.9495 146.716 40.5252C147.187 40.101 147.768 39.7711 148.46 39.5354C149.167 39.2997 149.968 39.1819 150.864 39.1819C151.351 39.1819 151.783 39.2368 152.16 39.3468C152.553 39.4411 152.89 39.5668 153.173 39.7239C153.472 39.881 153.715 40.0617 153.904 40.266C154.092 40.4545 154.234 40.6352 154.328 40.8081H154.422V39.4647H157.156V44.2726H154.422V43.2356C154.422 42.4028 154.132 41.8136 153.55 41.468C152.969 41.1066 152.215 40.9259 151.288 40.9259C150.219 40.9259 149.434 41.1537 148.931 41.6094C148.444 42.0493 148.2 42.5835 148.2 43.212C148.2 43.5734 148.255 43.8798 148.365 44.1312C148.475 44.3826 148.648 44.6025 148.884 44.7911C149.135 44.9796 149.457 45.1446 149.85 45.286C150.243 45.4117 150.722 45.5374 151.288 45.6631L152.278 45.8517C153.095 46.0245 153.825 46.2523 154.469 46.5351C155.129 46.8022 155.679 47.1479 156.119 47.5721C156.575 47.9964 156.921 48.4992 157.156 49.0805C157.392 49.6461 157.51 50.306 157.51 51.0602C157.51 51.7987 157.368 52.4822 157.086 53.1107C156.803 53.7392 156.394 54.2812 155.86 54.7369C155.341 55.1925 154.705 55.5539 153.951 55.821C153.197 56.0724 152.348 56.1981 151.406 56.1981Z" fill="white"/>
<g clip-path="url(#clip0_93_455)">
<path d="M19.2981 14.442C22.331 11.7031 26.3654 10.3473 30.4368 10.6986L43.7119 11.8442C46.5637 12.0903 47.8827 15.5106 45.9345 17.6077L37.1582 27.0553C33.7592 30.7142 28.7378 32.4017 23.8189 31.5381L11.1183 29.3083C8.29895 28.8133 7.28466 25.2906 9.40908 23.3722L19.2981 14.442Z" fill="white"/>
<path d="M31.8473 38.3489L33.3171 37.855L34.8726 37.3322C38.8336 36.0011 43.0902 32.114 41.7595 28.1544L40.9384 25.7109C40.9384 25.7109 37.6156 30.3446 31.5183 32.5026C25.4211 34.6606 21.2742 32.3194 21.2742 32.3194L22.0953 34.7629C23.4157 38.726 29.4038 39.1701 31.8473 38.3489Z" fill="white"/>
<path d="M19.4471 31.6384C18.56 31.4882 17.0245 31.1576 17.0245 31.1576L17.219 31.3512L17.5691 31.6221C17.53 31.5057 17.0245 31.1576 17.0245 31.1576L19.7666 39.6732C19.3424 40.0996 19.0778 40.665 19.0177 41.2737C18.9576 41.8824 19.1056 42.497 19.4368 43.0134L19.4461 43.0411C19.4781 43.0918 19.5148 43.1564 19.5602 43.2026C19.5649 43.2164 19.583 43.2257 19.5876 43.2396C19.6196 43.2903 19.6651 43.3365 19.7106 43.3828C19.7152 43.3966 19.7333 43.4059 19.7333 43.4059C19.8517 43.5353 19.9969 43.6556 20.1329 43.7483C20.1557 43.7714 20.1738 43.7807 20.2099 43.7993L20.5992 47.0516C20.6483 47.4708 20.7887 47.875 21.0099 48.2343C21.2311 48.5937 21.5275 48.8991 21.8774 49.1282C22.2273 49.3573 22.6217 49.5042 23.0317 49.5581C23.4417 49.6119 23.8569 49.5715 24.2466 49.4396C24.6369 49.3093 24.9922 49.0909 25.2865 48.8003C25.5807 48.5098 25.8064 48.1545 25.9469 47.7606C26.0875 47.3667 26.1393 46.9442 26.0985 46.5242C26.0578 46.1042 25.9256 45.6973 25.7116 45.3335L24.0577 42.5062C24.2501 41.9648 24.2708 41.3581 24.0711 40.764C23.955 40.4186 23.7763 40.1096 23.5577 39.8601C23.5531 39.8463 23.535 39.837 23.5169 39.8277C23.4895 39.7907 23.444 39.7445 23.4032 39.7121C23.3577 39.6659 23.3122 39.6197 23.2533 39.5779C23.2352 39.5687 23.2306 39.5548 23.2125 39.5455C22.8403 39.24 22.3837 39.0398 21.9104 38.9682L19.4471 31.6384Z" fill="white"/>
<path d="M27.2364 22.8452L24.9109 22.1718L16.8831 30.4281L19.7019 30.9881L27.2364 22.8452Z" fill="#707B89"/>
<ellipse cx="2.20138" cy="1.99117" rx="2.20138" ry="1.99117" transform="matrix(-0.790786 0.612092 0.612092 0.790786 26.9495 19.0163)" fill="#707B89"/>
</g>
<path d="M67.9982 65.711V60.2275H71.3449V60.8088H68.6581V62.6471H71.1878V63.2285H68.6581V65.1297H71.3449V65.711H67.9982ZM80.1673 65.711H79.3738L77.9362 63.4092H77.9205L76.4828 65.711H75.7286L77.5198 62.9221L75.7758 60.2275H76.5692L77.944 62.4115H77.9598L79.366 60.2275H80.1202L78.3604 62.8985L80.1673 65.711ZM84.781 65.711V60.2275H86.965C87.4573 60.2275 87.8344 60.3689 88.0963 60.6517C88.3634 60.9293 88.497 61.3116 88.497 61.7987C88.497 62.2858 88.3634 62.6707 88.0963 62.9535C87.8344 63.2311 87.4573 63.3699 86.965 63.3699H85.4409V65.711H84.781ZM85.4409 62.7886H86.965C87.2269 62.7886 87.4285 62.7205 87.5699 62.5843C87.7166 62.4481 87.7899 62.2543 87.7899 62.0029V61.5944C87.7899 61.343 87.7166 61.1493 87.5699 61.0131C87.4285 60.8769 87.2269 60.8088 86.965 60.8088H85.4409V62.7886ZM93.2377 65.711V60.2275H96.5844V60.8088H93.8976V62.6471H96.4272V63.2285H93.8976V65.1297H96.5844V65.711H93.2377ZM102.17 65.711H101.51V60.2275H103.694C104.176 60.2275 104.55 60.361 104.818 60.6281C105.09 60.8952 105.226 61.2802 105.226 61.783C105.226 62.1863 105.132 62.5188 104.943 62.7807C104.76 63.0373 104.488 63.2075 104.126 63.2913L105.383 65.711H104.637L103.451 63.3542H102.17V65.711ZM103.694 62.7886C103.956 62.7886 104.158 62.7205 104.299 62.5843C104.446 62.4481 104.519 62.2543 104.519 62.0029V61.5944C104.519 61.343 104.446 61.1493 104.299 61.0131C104.158 60.8769 103.956 60.8088 103.694 60.8088H102.17V62.7886H103.694ZM111.882 60.8088V65.711H111.222V60.8088H109.478V60.2275H113.626V60.8088H111.882Z" fill="white"/>
<defs>
<clipPath id="clip0_93_455">
<rect width="49.1004" height="49.5914" fill="white" transform="matrix(-0.947903 0.318558 0.318558 0.947903 46.5425 0)"/>
</clipPath>
</defs>
</svg>
